<mxfile host="app.diagrams.net" modified="2021-01-07T01:45:46.648Z" agent="5.0 (Windows NT 6.1; Win64; x64) AppleWebKit/537.36 (KHTML, like Gecko) Chrome/76.0.3809.132 Safari/537.36" etag="36jKL2zf6ggR6-s7bXNW" version="12.9.14" type="github">
  <diagram id="ZRZctjsknc8e8Y7eD8WB" name="Eureka">
    <mxGraphModel dx="1156" dy="667" grid="1" gridSize="10" guides="1" tooltips="1" connect="1" arrows="1" fold="1" page="1" pageScale="1" pageWidth="827" pageHeight="1169" math="0" shadow="0">
      <root>
        <mxCell id="0" />
        <mxCell id="1" parent="0" />
        <mxCell id="ys1kdwdnNZaFBrmjLRdG-1" value="Eureka&lt;br&gt;服务注册&lt;br&gt;心跳与故障" style="rounded=1;whiteSpace=wrap;html=1;verticalAlign=top;" vertex="1" parent="1">
          <mxGeometry x="414" y="140" width="520" height="300" as="geometry" />
        </mxCell>
        <mxCell id="ys1kdwdnNZaFBrmjLRdG-20" style="edgeStyle=orthogonalEdgeStyle;rounded=0;orthogonalLoop=1;jettySize=auto;html=1;entryX=0.5;entryY=1;entryDx=0;entryDy=0;" edge="1" parent="1" source="ys1kdwdnNZaFBrmjLRdG-2" target="ys1kdwdnNZaFBrmjLRdG-6">
          <mxGeometry relative="1" as="geometry">
            <Array as="points">
              <mxPoint x="185" y="530" />
              <mxPoint x="1125" y="530" />
            </Array>
          </mxGeometry>
        </mxCell>
        <mxCell id="ys1kdwdnNZaFBrmjLRdG-21" value="远程调用" style="edgeLabel;html=1;align=center;verticalAlign=middle;resizable=0;points=[];" vertex="1" connectable="0" parent="ys1kdwdnNZaFBrmjLRdG-20">
          <mxGeometry x="-0.1027" y="-2" relative="1" as="geometry">
            <mxPoint as="offset" />
          </mxGeometry>
        </mxCell>
        <mxCell id="ys1kdwdnNZaFBrmjLRdG-2" value="消费者&lt;br&gt;&lt;br&gt;服务注册列表&lt;br&gt;192.168.1.10:8080" style="rounded=0;whiteSpace=wrap;html=1;" vertex="1" parent="1">
          <mxGeometry x="120" y="210" width="150" height="70" as="geometry" />
        </mxCell>
        <mxCell id="ys1kdwdnNZaFBrmjLRdG-13" style="edgeStyle=orthogonalEdgeStyle;rounded=0;orthogonalLoop=1;jettySize=auto;html=1;entryX=1;entryY=0.5;entryDx=0;entryDy=0;" edge="1" parent="1" source="ys1kdwdnNZaFBrmjLRdG-4" target="ys1kdwdnNZaFBrmjLRdG-11">
          <mxGeometry relative="1" as="geometry">
            <Array as="points">
              <mxPoint x="840" y="355" />
            </Array>
          </mxGeometry>
        </mxCell>
        <mxCell id="ys1kdwdnNZaFBrmjLRdG-4" value="服务注册列表&lt;br&gt;192.168.1.10:8080&lt;br&gt;192.168.1.11:8080" style="rounded=0;whiteSpace=wrap;html=1;" vertex="1" parent="1">
          <mxGeometry x="770" y="230" width="140" height="60" as="geometry" />
        </mxCell>
        <mxCell id="ys1kdwdnNZaFBrmjLRdG-7" style="edgeStyle=orthogonalEdgeStyle;rounded=0;orthogonalLoop=1;jettySize=auto;html=1;entryX=1;entryY=0.25;entryDx=0;entryDy=0;" edge="1" parent="1" source="ys1kdwdnNZaFBrmjLRdG-5" target="ys1kdwdnNZaFBrmjLRdG-4">
          <mxGeometry relative="1" as="geometry" />
        </mxCell>
        <mxCell id="ys1kdwdnNZaFBrmjLRdG-10" value="服务注册" style="edgeLabel;html=1;align=center;verticalAlign=middle;resizable=0;points=[];" vertex="1" connectable="0" parent="ys1kdwdnNZaFBrmjLRdG-7">
          <mxGeometry x="-0.3789" y="5" relative="1" as="geometry">
            <mxPoint as="offset" />
          </mxGeometry>
        </mxCell>
        <mxCell id="ys1kdwdnNZaFBrmjLRdG-25" style="edgeStyle=orthogonalEdgeStyle;rounded=0;orthogonalLoop=1;jettySize=auto;html=1;entryX=1;entryY=0.5;entryDx=0;entryDy=0;" edge="1" parent="1" source="ys1kdwdnNZaFBrmjLRdG-5" target="ys1kdwdnNZaFBrmjLRdG-4">
          <mxGeometry relative="1" as="geometry">
            <Array as="points">
              <mxPoint x="1125" y="260" />
            </Array>
          </mxGeometry>
        </mxCell>
        <mxCell id="ys1kdwdnNZaFBrmjLRdG-5" value="服务提供者&lt;br&gt;192.168.1.11:8080" style="rounded=0;whiteSpace=wrap;html=1;" vertex="1" parent="1">
          <mxGeometry x="1050" y="160" width="150" height="70" as="geometry" />
        </mxCell>
        <mxCell id="ys1kdwdnNZaFBrmjLRdG-8" style="edgeStyle=orthogonalEdgeStyle;rounded=0;orthogonalLoop=1;jettySize=auto;html=1;exitX=0;exitY=0.5;exitDx=0;exitDy=0;entryX=1;entryY=0.75;entryDx=0;entryDy=0;" edge="1" parent="1" source="ys1kdwdnNZaFBrmjLRdG-6" target="ys1kdwdnNZaFBrmjLRdG-4">
          <mxGeometry relative="1" as="geometry">
            <mxPoint x="950" y="280" as="targetPoint" />
          </mxGeometry>
        </mxCell>
        <mxCell id="ys1kdwdnNZaFBrmjLRdG-9" value="服务注册" style="edgeLabel;html=1;align=center;verticalAlign=middle;resizable=0;points=[];" vertex="1" connectable="0" parent="ys1kdwdnNZaFBrmjLRdG-8">
          <mxGeometry x="-0.3833" y="-23" relative="1" as="geometry">
            <mxPoint x="-2" y="-22" as="offset" />
          </mxGeometry>
        </mxCell>
        <mxCell id="ys1kdwdnNZaFBrmjLRdG-26" style="edgeStyle=orthogonalEdgeStyle;rounded=0;orthogonalLoop=1;jettySize=auto;html=1;entryX=1;entryY=0.5;entryDx=0;entryDy=0;" edge="1" parent="1" source="ys1kdwdnNZaFBrmjLRdG-6" target="ys1kdwdnNZaFBrmjLRdG-4">
          <mxGeometry relative="1" as="geometry">
            <Array as="points">
              <mxPoint x="1125" y="260" />
            </Array>
          </mxGeometry>
        </mxCell>
        <mxCell id="ys1kdwdnNZaFBrmjLRdG-27" value="定时发送心跳" style="edgeLabel;html=1;align=center;verticalAlign=middle;resizable=0;points=[];" vertex="1" connectable="0" parent="ys1kdwdnNZaFBrmjLRdG-26">
          <mxGeometry x="-0.0327" y="-1" relative="1" as="geometry">
            <mxPoint as="offset" />
          </mxGeometry>
        </mxCell>
        <mxCell id="ys1kdwdnNZaFBrmjLRdG-6" value="服务提供者&lt;br&gt;192.168.1.10:8080" style="rounded=0;whiteSpace=wrap;html=1;" vertex="1" parent="1">
          <mxGeometry x="1050" y="320" width="150" height="70" as="geometry" />
        </mxCell>
        <mxCell id="ys1kdwdnNZaFBrmjLRdG-14" style="edgeStyle=orthogonalEdgeStyle;rounded=0;orthogonalLoop=1;jettySize=auto;html=1;entryX=1;entryY=0.5;entryDx=0;entryDy=0;" edge="1" parent="1" source="ys1kdwdnNZaFBrmjLRdG-11" target="ys1kdwdnNZaFBrmjLRdG-12">
          <mxGeometry relative="1" as="geometry" />
        </mxCell>
        <mxCell id="ys1kdwdnNZaFBrmjLRdG-11" value="读写缓存&lt;br&gt;&lt;br&gt;服务注册列表&lt;br&gt;192.168.1.10:8080&lt;br&gt;192.168.1.11:8080" style="rounded=0;whiteSpace=wrap;html=1;" vertex="1" parent="1">
          <mxGeometry x="614" y="310" width="120" height="75" as="geometry" />
        </mxCell>
        <mxCell id="ys1kdwdnNZaFBrmjLRdG-15" style="edgeStyle=orthogonalEdgeStyle;rounded=0;orthogonalLoop=1;jettySize=auto;html=1;exitX=0;exitY=0.5;exitDx=0;exitDy=0;" edge="1" parent="1" source="ys1kdwdnNZaFBrmjLRdG-12">
          <mxGeometry relative="1" as="geometry">
            <mxPoint x="270" y="243" as="targetPoint" />
            <Array as="points">
              <mxPoint x="520" y="243" />
              <mxPoint x="270" y="243" />
            </Array>
          </mxGeometry>
        </mxCell>
        <mxCell id="ys1kdwdnNZaFBrmjLRdG-16" value="服务发现" style="edgeLabel;html=1;align=center;verticalAlign=middle;resizable=0;points=[];" vertex="1" connectable="0" parent="ys1kdwdnNZaFBrmjLRdG-15">
          <mxGeometry x="0.2644" y="1" relative="1" as="geometry">
            <mxPoint x="1" as="offset" />
          </mxGeometry>
        </mxCell>
        <mxCell id="ys1kdwdnNZaFBrmjLRdG-12" value="读缓存&lt;br&gt;服务注册列表&lt;br&gt;192.168.1.10:8080" style="rounded=0;whiteSpace=wrap;html=1;" vertex="1" parent="1">
          <mxGeometry x="520" y="210" width="120" height="60" as="geometry" />
        </mxCell>
        <mxCell id="ys1kdwdnNZaFBrmjLRdG-18" style="edgeStyle=orthogonalEdgeStyle;rounded=0;orthogonalLoop=1;jettySize=auto;html=1;exitX=1;exitY=0.5;exitDx=0;exitDy=0;entryX=0.5;entryY=1;entryDx=0;entryDy=0;" edge="1" parent="1" source="ys1kdwdnNZaFBrmjLRdG-17" target="ys1kdwdnNZaFBrmjLRdG-11">
          <mxGeometry relative="1" as="geometry" />
        </mxCell>
        <mxCell id="ys1kdwdnNZaFBrmjLRdG-19" value="定时同步两个缓存" style="edgeLabel;html=1;align=center;verticalAlign=middle;resizable=0;points=[];" vertex="1" connectable="0" parent="ys1kdwdnNZaFBrmjLRdG-18">
          <mxGeometry x="-0.3408" y="1" relative="1" as="geometry">
            <mxPoint as="offset" />
          </mxGeometry>
        </mxCell>
        <mxCell id="ys1kdwdnNZaFBrmjLRdG-17" value="线程" style="ellipse;whiteSpace=wrap;html=1;aspect=fixed;fillColor=#e1d5e7;strokeColor=#9673a6;" vertex="1" parent="1">
          <mxGeometry x="460" y="380" width="60" height="60" as="geometry" />
        </mxCell>
        <mxCell id="ys1kdwdnNZaFBrmjLRdG-23" style="edgeStyle=orthogonalEdgeStyle;rounded=0;orthogonalLoop=1;jettySize=auto;html=1;entryX=0.143;entryY=0;entryDx=0;entryDy=0;entryPerimeter=0;" edge="1" parent="1" source="ys1kdwdnNZaFBrmjLRdG-22" target="ys1kdwdnNZaFBrmjLRdG-4">
          <mxGeometry relative="1" as="geometry">
            <Array as="points">
              <mxPoint x="790" y="170" />
            </Array>
          </mxGeometry>
        </mxCell>
        <mxCell id="ys1kdwdnNZaFBrmjLRdG-24" value="定时检查心跳" style="edgeLabel;html=1;align=center;verticalAlign=middle;resizable=0;points=[];" vertex="1" connectable="0" parent="ys1kdwdnNZaFBrmjLRdG-23">
          <mxGeometry x="-0.0909" y="3" relative="1" as="geometry">
            <mxPoint x="-4" y="3" as="offset" />
          </mxGeometry>
        </mxCell>
        <mxCell id="ys1kdwdnNZaFBrmjLRdG-22" value="线程" style="ellipse;whiteSpace=wrap;html=1;aspect=fixed;fillColor=#e1d5e7;strokeColor=#9673a6;" vertex="1" parent="1">
          <mxGeometry x="840" y="140" width="60" height="60" as="geometry" />
        </mxCell>
      </root>
    </mxGraphModel>
  </diagram>
</mxfile>
